<svg width="16" height="20" viewBox="0 0 16 20" fill="none" xmlns="http://www.w3.org/2000/svg">
    <path d="M0.75 8.56475C0.749901 5.89617 1.67889 3.95779 3.01686 2.68451C4.36472 1.4018 6.17406 0.750008 7.99984 0.75C9.82563 0.749993 11.635 1.40177 12.9829 2.68447C14.3209 3.95774 15.25 5.89611 15.25 8.56466C15.25 9.70173 14.8152 10.9442 14.098 12.2058C13.3848 13.4604 12.4235 14.6795 11.4451 15.7556C10.4689 16.8292 9.49028 17.7444 8.75457 18.3919C8.45695 18.6538 8.19995 18.8711 8.00006 19.0366C7.80017 18.8711 7.54317 18.6538 7.24556 18.3919C6.50985 17.7444 5.53119 16.8292 4.55501 15.7556C3.57659 14.6796 2.61529 13.4604 1.90209 12.2058C1.18484 10.9442 0.750042 9.70179 0.75 8.56475Z" stroke="#484B4C" stroke-width="1.5"/>
    <path d="M5 8C5 6.34315 6.34315 5 8 5V5C9.65685 5 11 6.34315 11 8V8C11 9.65685 9.65685 11 8 11V11C6.34315 11 5 9.65685 5 8V8Z" stroke="#484B4C" stroke-width="1.5"/>
</svg>