<svg id="Logo" xmlns="http://www.w3.org/2000/svg" width="186.564" height="32.562" viewBox="0 0 186.564 32.562">
  <g id="Group" transform="translate(0 9.41)">
    <path id="Shape" d="M4.588,0H0V17.148H12.409V13.436H4.588Z" transform="translate(16.799 0.283)" fill="#FD0028"/>
    <path id="Shape-2" data-name="Shape" d="M6.534,17.183H0V0H6.1a10.282,10.282,0,0,1,7.2,2.363,8.176,8.176,0,0,1,2.507,6.26,7.676,7.676,0,0,1-2.343,5.947A10.013,10.013,0,0,1,6.534,17.183ZM4.589,3.713h0v9.755h.988a5.373,5.373,0,0,0,3.995-1.257,4.629,4.629,0,0,0,1.417-3.589A5.14,5.14,0,0,0,9.571,4.815c-.626-.545-1.567-1.1-3.8-1.1Z" transform="translate(32.476 0.282)" fill="#FD0028"/>
    <path id="Shape-3" data-name="Shape" d="M9.634,17.714a11.207,11.207,0,0,1-3.795-.658,9.1,9.1,0,0,1-3.1-1.86A8.58,8.58,0,0,1,0,8.873,8.621,8.621,0,0,1,2.737,2.516,10.142,10.142,0,0,1,9.634,0a10.162,10.162,0,0,1,6.9,2.516,8.711,8.711,0,0,1,0,12.681A10.154,10.154,0,0,1,9.634,17.714Zm0-13.528a5.118,5.118,0,0,0-3.6,1.383,4.7,4.7,0,0,0-1.418,3.4,4.224,4.224,0,0,0,1.418,3.211,5.093,5.093,0,0,0,3.6,1.386A4.985,4.985,0,0,0,13.2,12.208a4.942,4.942,0,0,0,1.453-3.336A4.562,4.562,0,0,0,13.2,5.57,5.278,5.278,0,0,0,9.634,4.187Z" transform="translate(50.596)" fill="#FD0028"/>
    <path id="Shape-4" data-name="Shape" d="M9.639,17.714a10.132,10.132,0,0,1-6.9-2.518,8.7,8.7,0,0,1,0-12.681A10.142,10.142,0,0,1,9.639,0a11.214,11.214,0,0,1,3.8.658,9.1,9.1,0,0,1,3.1,1.858,8.527,8.527,0,0,1,2.741,6.357A8.677,8.677,0,0,1,16.536,15.2,10.132,10.132,0,0,1,9.639,17.714Zm0-13.528a5.121,5.121,0,0,0-3.6,1.383,4.7,4.7,0,0,0-1.417,3.4,4.229,4.229,0,0,0,1.417,3.211,5.1,5.1,0,0,0,3.6,1.386A4.983,4.983,0,0,0,13.2,12.208a4.654,4.654,0,0,0,1.453-3.336A4.571,4.571,0,0,0,13.2,5.57,5.273,5.273,0,0,0,9.639,4.187Z" transform="translate(128.35)" fill="#FD0028"/>
    <path id="Shape-5" data-name="Shape" d="M6.533,17.183H0V0H6.1a12.941,12.941,0,0,1,4.087.58,8.262,8.262,0,0,1,3.075,1.783,8.18,8.18,0,0,1,2.507,6.26A7.763,7.763,0,0,1,13.43,14.57,10.239,10.239,0,0,1,6.533,17.183ZM4.584,3.682h0v9.755H5.608A5.373,5.373,0,0,0,9.6,12.18a4.756,4.756,0,0,0,1.386-3.589A4.982,4.982,0,0,0,9.571,4.783c-.63-.545-1.574-1.1-3.8-1.1Z" transform="translate(110.4 0.282)" fill="#FD0028"/>
    <path id="Shape-6" data-name="Shape" d="M4.854,17.184H0L6.9,0h5.081l6.767,17.181H13.863l-1.12-2.894-.168-.41a11.929,11.929,0,0,1-3.167.41,11.812,11.812,0,0,1-3.168-.41l-.168.41L4.854,17.183ZM9.376,5.131h0L7.494,10.478a7.592,7.592,0,0,0,1.914.222,7.945,7.945,0,0,0,1.949-.222L9.376,5.131Z" transform="translate(89.34 0.282)" fill="#FD0028"/>
    <path id="Shape-7" data-name="Shape" d="M4.424,17.181H0V0H7.1a9.935,9.935,0,0,1,3.566.406,4.944,4.944,0,0,1,3.1,3.3,6.846,6.846,0,0,1,.266,1.89,5.872,5.872,0,0,1-.629,2.64,4.742,4.742,0,0,1-1.878,2.015c-.049.03-.089.06-.128.088l-.026.019c-.029.023-.066.052-.112.083l4.291,6.732H10.629L7.361,11.736c-.4.031-.824.062-1.223.062-.457,0-1.705-.095-1.714-.095V17.18Zm0-13.471h0V8.022a6.2,6.2,0,0,0,1.714.254A4.761,4.761,0,0,0,8.517,7.8,2.071,2.071,0,0,0,9.54,5.913,1.869,1.869,0,0,0,8.349,3.932,6.917,6.917,0,0,0,6.4,3.711Z" transform="translate(72.608 0.253)" fill="#FD0028"/>
    <path id="Shape-8" data-name="Shape" d="M0,17.148H12.409V13.436H4.588V10.383h7.525V6.671H4.588V3.681h7.822V0H0Z" transform="translate(0 0.283)" fill="#FD0028"/>
  </g>
  <g id="Group-2" data-name="Group" transform="translate(153.637 0)">
    <rect id="Rectangle-path" width="29.549" height="2.256" transform="translate(0 4.512)" fill="#FD0028"/>
    <rect id="Rectangle-path-2" data-name="Rectangle-path" width="28.336" height="2.256" transform="translate(0 30.274)" fill="#FD0028"/>
    <rect id="Rectangle-path-3" data-name="Rectangle-path" width="2.296" height="28.437" transform="translate(26.073 4.093)" fill="#FD0028"/>
    <rect id="Rectangle-path-4" data-name="Rectangle-path" width="2.296" height="28.05" transform="translate(0 4.512)" fill="#FD0028"/>
    <rect id="Rectangle-path-5" data-name="Rectangle-path" width="2.296" height="7.509" transform="translate(26.073)" fill="#FD0028"/>
    <rect id="Rectangle-path-6" data-name="Rectangle-path" width="8.002" height="2.256" transform="translate(24.925 4.512)" fill="#FD0028"/>
  </g>
  <g id="Group-3" data-name="Group" transform="translate(158.727 14.892)">
    <path id="Shape-9" data-name="Shape" d="M9.818,9.141H7.251L6.66,7.606l-.069-.234a7.108,7.108,0,0,1-1.665.2A6.863,6.863,0,0,1,3.261,7.34l-.069.233L2.567,9.107H0L3.643,0H6.279L9.817,9.14ZM4.926,2.736h0L3.92,5.571a5.121,5.121,0,0,0,1.006.1,4.884,4.884,0,0,0,1.006-.1L4.926,2.736Z" transform="translate(8.915 0)" fill="#FD0028"/>
    <path id="Shape-10" data-name="Shape" d="M5.585,0V5.6a1.5,1.5,0,0,1-1.422,1.5H3.885A1.542,1.542,0,0,1,2.463,5.6l-.035-.567V0H0V5.2A4.123,4.123,0,0,0,1.214,8.174a3.718,3.718,0,0,0,2.775,1h0a3.8,3.8,0,0,0,2.775-1A4.2,4.2,0,0,0,7.979,5.2V0Z" fill="#FD0028"/>
  </g>
</svg>