<svg width="21" height="20" viewBox="0 0 21 20" fill="none" xmlns="http://www.w3.org/2000/svg">
    <path fill-rule="evenodd" clip-rule="evenodd" d="M10.5 2C9.94771 2 9.5 2.44772 9.5 3L4.5 3H4C3.72386 3 3.5 3.22386 3.5 3.5C3.5 3.77614 3.72386 4 4 4H4.08095L3.95787 4.29371L0.709524 12.0455L0.5 12.5455V13L0.500253 13.0455C0.524618 15.2337 2.30603 17 4.5 17C6.69397 17 8.47538 15.2337 8.49975 13.0455L8.5 13V12.5455L8.29048 12.0455L5.04213 4.29371L4.91905 4H9.5C9.5 4.55228 9.94771 5 10.5 5C11.0523 5 11.5 4.55228 11.5 4H16.081L15.9579 4.29371L12.7095 12.0455L12.5 12.5455V13L12.5003 13.0455C12.5246 15.2337 14.306 17 16.5 17C18.694 17 20.4754 15.2337 20.4997 13.0455L20.5 13V12.5455L20.2905 12.0455L17.0421 4.29371L16.919 4H17C17.2761 4 17.5 3.77614 17.5 3.5C17.5 3.22386 17.2761 3 17 3H16.5H11.5C11.5 2.44772 11.0523 2 10.5 2ZM4.5 16C6.14168 16 7.47536 14.6813 7.49966 13.0455H1.50034C1.52464 14.6813 2.85832 16 4.5 16ZM7.20622 12.0455H1.79378L4.5 5.58742L7.20622 12.0455ZM16.5 16C18.1417 16 19.4754 14.6813 19.4997 13.0455H13.5003C13.5246 14.6813 14.8583 16 16.5 16ZM19.2062 12.0455H13.7938L16.5 5.58742L19.2062 12.0455Z" fill="white"/>
</svg>