<svg width="138" height="24" viewBox="0 0 138 24" fill="none" xmlns="http://www.w3.org/2000/svg">
    <path d="M15.8197 7.14417H12.426V19.7832H21.6049V17.0472H15.8197V7.14417Z" fill="white"/>
    <path d="M28.8554 19.8081H24.0222V7.14329H28.5343C30.4674 7.02705 32.3721 7.64994 33.8601 8.88495C34.4807 9.47839 34.9672 10.1969 35.2869 10.9926C35.6067 11.7882 35.7525 12.6427 35.7145 13.4989C35.7587 14.3107 35.6267 15.1225 35.3276 15.8789C35.0286 16.6353 34.5694 17.3185 33.9814 17.8822C32.5826 19.1534 30.7483 19.8426 28.8554 19.8081ZM27.4167 9.87998V17.07H28.1475C28.6772 17.1205 29.2117 17.0646 29.7193 16.9054C30.227 16.7463 30.6973 16.4872 31.1026 16.1435C31.4579 15.8036 31.7355 15.3914 31.9164 14.9348C32.0973 14.4783 32.1772 13.9883 32.1507 13.4982C32.1764 12.984 32.0966 12.47 31.9163 11.9876C31.7359 11.5051 31.4588 11.0644 31.1018 10.6922C30.6388 10.2905 29.9427 9.88145 28.291 9.88145L27.4167 9.87998Z" fill="white"/>
    <path d="M44.5516 19.992C43.5948 19.993 42.6451 19.8289 41.7445 19.507C40.8958 19.2074 40.1161 18.7413 39.4514 18.1361C38.8088 17.541 38.297 16.8196 37.9483 16.0174C37.5996 15.2153 37.4215 14.3498 37.4254 13.4757C37.4197 12.5977 37.5966 11.728 37.9451 10.9216C38.2936 10.1152 38.8059 9.38945 39.45 8.79022C40.8584 7.55894 42.6783 6.89741 44.5516 6.93578C46.4254 6.89829 48.2457 7.55967 49.6555 8.79022C50.2949 9.39047 50.8045 10.1147 51.1527 10.9183C51.501 11.722 51.6806 12.5881 51.6806 13.4635C51.6806 14.3389 51.501 15.205 51.1527 16.0087C50.8045 16.8123 50.2949 17.5366 49.6555 18.1368C48.2461 19.3681 46.4256 20.0298 44.5516 19.992ZM44.5516 10.0211C43.5646 10.0019 42.609 10.3677 41.8887 11.0404C41.5535 11.3662 41.2879 11.7562 41.1076 12.1868C40.9274 12.6174 40.8363 13.0799 40.8398 13.5464C40.8342 13.9928 40.9249 14.4351 41.1059 14.8435C41.2869 15.2518 41.5538 15.6166 41.8887 15.9131C42.6076 16.5884 43.5639 16.9552 44.5516 16.9347C45.0357 16.9486 45.5178 16.8674 45.9704 16.6957C46.423 16.5239 46.8372 16.265 47.1894 15.9338C47.8484 15.2802 48.2328 14.4009 48.2641 13.4749C48.2605 13.0178 48.1632 12.5662 47.9784 12.1477C47.7936 11.7292 47.5252 11.3527 47.1894 11.0412C46.4689 10.3847 45.5278 10.0211 44.5516 10.0218V10.0211Z" fill="white"/>
    <path d="M102.069 19.992C100.195 20.0313 98.3741 19.3691 96.9656 18.1361C96.3251 17.5365 95.8146 16.8125 95.4657 16.0088C95.1168 15.205 94.9368 14.3386 94.9368 13.4628C94.9368 12.5871 95.1168 11.7207 95.4657 10.9169C95.8146 10.1132 96.3251 9.38918 96.9656 8.78954C98.3748 7.55801 100.196 6.89672 102.069 6.93585C103.028 6.93455 103.979 7.09864 104.88 7.42083C105.729 7.71996 106.509 8.18562 107.173 8.79028C107.821 9.3866 108.337 10.1117 108.686 10.9188C109.035 11.7258 109.21 12.5969 109.201 13.4757C109.2 14.35 109.02 15.2149 108.671 16.017C108.322 16.8191 107.811 17.5413 107.171 18.1391C105.763 19.3705 103.943 20.0315 102.069 19.992ZM102.069 10.0212C101.082 10.0022 100.127 10.3679 99.4066 11.0405C99.0715 11.3664 98.806 11.7563 98.6259 12.1869C98.4458 12.6175 98.3548 13.08 98.3584 13.5465C98.3529 13.9928 98.4437 14.435 98.6245 14.8433C98.8053 15.2516 99.072 15.6165 99.4066 15.9132C100.126 16.588 101.082 16.9548 102.069 16.9347C103.046 16.9621 103.993 16.6021 104.704 15.9338C105.039 15.6169 105.307 15.2359 105.492 14.8134C105.677 14.391 105.774 13.9358 105.778 13.475C105.774 13.0179 105.677 12.5664 105.492 12.148C105.307 11.7296 105.039 11.353 104.704 11.0412C103.984 10.3854 103.045 10.0217 102.069 10.0219V10.0212Z" fill="white"/>
    <path d="M86.4945 19.8088H81.6621V7.14397H86.1742C87.1984 7.12437 88.2191 7.2687 89.1974 7.57146C90.0423 7.83989 90.8184 8.28833 91.4719 8.88563C92.0924 9.47919 92.5787 10.1977 92.8985 10.9934C93.2182 11.789 93.3641 12.6434 93.3263 13.4996C93.3666 14.3107 93.2332 15.1211 92.9349 15.8769C92.6366 16.6326 92.1802 17.3164 91.5962 17.8829C90.1948 19.134 88.3761 19.8206 86.4945 19.8088ZM85.0529 9.85781V17.0478H85.8103C86.3397 17.098 86.8738 17.0419 87.381 16.8828C87.8882 16.7237 88.3582 16.4647 88.7632 16.1213C89.1095 15.7759 89.3796 15.3621 89.5562 14.9066C89.7327 14.451 89.8118 13.9638 89.7884 13.476C89.8216 12.9612 89.7455 12.4451 89.5652 11.9615C89.3848 11.4779 89.1043 11.0376 88.7417 10.6693C88.2757 10.2676 87.5774 9.85855 85.9309 9.85855L85.0529 9.85781Z" fill="white"/>
    <path d="M69.6746 19.8087H66.0841L71.188 7.14319H74.9464L79.9519 19.8065H76.3385L75.51 17.6735L75.3857 17.3713C74.622 17.5762 73.8341 17.6778 73.0431 17.6735C72.2519 17.679 71.4636 17.5773 70.6998 17.3713L70.5755 17.6735L69.6746 19.808V19.8087ZM73.0195 10.925L71.6274 14.8661C72.0904 14.9803 72.5662 15.0353 73.0431 15.0297C73.5286 15.0347 74.0129 14.9797 74.4848 14.8661L73.0195 10.925Z" fill="white"/>
    <path d="M56.9799 19.7855H53.7075V7.12215H58.9593C59.8495 7.06151 60.7434 7.16292 61.5971 7.4214C62.1461 7.61553 62.6406 7.93754 63.0395 8.36061C63.4383 8.78369 63.73 9.29558 63.8901 9.85368C64.0207 10.3066 64.0869 10.7755 64.0869 11.2467C64.0864 11.9226 63.9271 12.589 63.6216 13.1925C63.3162 13.8137 62.8328 14.3305 62.2325 14.6777C62.1962 14.6998 62.1666 14.7219 62.1378 14.7426L62.1186 14.7566C62.0971 14.7735 62.0697 14.7949 62.0357 14.8178L65.2097 19.7796H61.5697L59.1524 15.7722C58.8565 15.7951 58.5429 15.8179 58.2478 15.8179C57.9097 15.8179 56.9866 15.7479 56.9799 15.7479V19.7848V19.7855ZM56.9799 9.85663V13.0348C57.3917 13.156 57.8184 13.2191 58.2478 13.222C58.8549 13.2585 59.4612 13.1376 60.0075 12.8712C60.2491 12.7304 60.4474 12.5263 60.5808 12.2811C60.7142 12.0359 60.7776 11.759 60.7642 11.4804C60.803 11.1738 60.7372 10.8631 60.5774 10.5983C60.4176 10.3335 60.1731 10.1299 59.8832 10.0203C59.4129 9.898 58.9274 9.84315 58.4416 9.85737L56.9799 9.85663Z" fill="white"/>
    <path d="M0 19.7834H9.17884V17.0475H3.39371V14.7973H8.95989V12.0613H3.39371V9.85751H9.17958V7.14441H0V19.7834Z" fill="white"/>
    <path d="M135.501 3.32544H113.644V4.98824H135.501V3.32544Z" fill="white"/>
    <path d="M134.604 22.314H113.644V23.9768H134.604V22.314Z" fill="white"/>
    <path d="M134.628 3.0166H132.93V23.9762H134.628V3.0166Z" fill="white"/>
    <path d="M115.342 3.32544H113.644V23.9998H115.342V3.32544Z" fill="white"/>
    <path d="M134.628 0H132.93V5.53455H134.628V0Z" fill="white"/>
    <path d="M138 3.3252H132.081V4.98799H138V3.3252Z" fill="white"/>
    <path d="M131.266 17.713H129.367L128.93 16.5816L128.879 16.4092C128.475 16.5065 128.062 16.556 127.647 16.5566C127.231 16.5501 126.817 16.4926 126.415 16.3856L126.364 16.5573L125.902 17.688H124.003L126.698 10.9756H128.648L131.265 17.7123L131.266 17.713ZM127.647 12.9922L126.903 15.0817C127.148 15.1307 127.397 15.1554 127.647 15.1554C127.897 15.1566 128.146 15.1319 128.391 15.0817L127.647 12.9922Z" fill="white"/>
    <path d="M121.54 10.9756V15.1031C121.541 15.3866 121.432 15.6595 121.236 15.8652C121.04 16.071 120.773 16.1939 120.488 16.2087H120.283C120.001 16.1869 119.738 16.0617 119.543 15.8575C119.349 15.6532 119.238 15.3844 119.231 15.1031L119.205 14.6852V10.9756H117.409V14.8083C117.404 15.2149 117.481 15.6185 117.635 15.995C117.789 16.3715 118.018 16.7134 118.307 17.0003C118.581 17.2562 118.904 17.4536 119.257 17.5803C119.61 17.7071 119.985 17.7605 120.36 17.7373C120.734 17.757 121.108 17.7019 121.461 17.5754C121.813 17.4488 122.137 17.2533 122.412 17.0003C122.992 16.4172 123.315 15.6287 123.311 14.8083V10.9756H121.54Z" fill="white"/>
</svg>