<svg width="18" height="18" viewBox="0 0 18 18" fill="none" xmlns="http://www.w3.org/2000/svg">
<path d="M7.78068 4.69411L6.50744 2.14764C5.8739 0.880563 4.1852 0.606524 3.18349 1.60824L1.50659 3.28513C1.46618 3.32555 1.43016 3.36743 1.40154 3.41691C1.10671 3.92667 -0.392363 7.16832 5.21966 12.7803C10.8317 18.3924 14.0733 16.8933 14.5831 16.5985C14.6326 16.5698 14.6745 16.5338 14.7149 16.4934L16.3918 14.8165C17.3935 13.8148 17.1194 12.1261 15.8524 11.4926L13.3059 10.2193C12.9728 10.0528 12.576 10.0775 12.2662 10.2841L10.6448 11.365C10.2332 11.6394 9.68512 11.5851 9.33533 11.2353L6.76467 8.66467C6.41489 8.31488 6.36062 7.76683 6.63501 7.35524L7.71595 5.73384C7.92252 5.42398 7.94722 5.0272 7.78068 4.69411Z" stroke="#484B4C" stroke-width="1.5"/>
</svg>