<svg width="38" height="32" viewBox="0 0 38 32" fill="none" xmlns="http://www.w3.org/2000/svg">
    <path d="M0 2C0 0.895431 0.895431 0 2 0H34C36.2091 0 38 1.79086 38 4V28C38 30.2091 36.2091 32 34 32H2C0.89543 32 0 31.1046 0 30V2Z" fill="#FD0028"/>
    <path fill-rule="evenodd" clip-rule="evenodd" d="M17.5 20C14.4624 20 12 17.5376 12 14.5C12 11.4624 14.4624 9 17.5 9C20.5376 9 23 11.4624 23 14.5C23 17.5376 20.5376 20 17.5 20ZM10 14.5C10 10.3579 13.3579 7 17.5 7C21.6421 7 25 10.3579 25 14.5C25 16.2321 24.4129 17.827 23.4268 19.0966L28.2998 23.9696C28.6903 24.3601 28.6903 24.9932 28.2998 25.3838C27.9092 25.7743 27.2761 25.7743 26.8855 25.3838L22.0013 20.4996C20.7476 21.4417 19.189 22 17.5 22C13.3579 22 10 18.6421 10 14.5Z" fill="white"/>
</svg>