<svg width="24" height="24" viewBox="0 0 24 24" fill="none" xmlns="http://www.w3.org/2000/svg">
    <path d="M7.5 17C7.22386 17 7 17.2239 7 17.5C7 17.7761 7.22386 18 7.5 18H10.5C10.7761 18 11 17.7761 11 17.5C11 17.2239 10.7761 17 10.5 17H7.5Z" fill="#474A4B"/>
    <path d="M15.5 19C15.2239 19 15 19.2239 15 19.5C15 19.7761 15.2239 20 15.5 20H18.5C18.7761 20 19 19.7761 19 19.5C19 19.2239 18.7761 19 18.5 19H15.5Z" fill="#474A4B"/>
    <path fill-rule="evenodd" clip-rule="evenodd" d="M21 7H16V3C16 2.44772 15.5523 2 15 2H3C2.44772 2 2 2.44772 2 3V19C2 19.5523 2.44772 20 3 20H12V21C12 21.5523 12.4477 22 13 22H21C21.5523 22 22 21.5523 22 21V8C22 7.44772 21.5523 7 21 7ZM3 3H15V7H13C12.4477 7 12 7.44772 12 8V19H3V3ZM21 8H20C20 8.55228 19.5523 9 19 9H15C14.4477 9 14 8.55228 14 8H13V21H21V8Z" fill="#474A4B"/>
</svg>